<?xml version="1.0" encoding="UTF-8"?> <svg xmlns="http://www.w3.org/2000/svg" xmlns:xlink="http://www.w3.org/1999/xlink" width="289.414" height="80.753" viewBox="0 0 289.414 80.753"><defs><linearGradient id="linear-gradient" x1="-9.658" y1="11.091" x2="8.485" y2="-7.825" gradientUnits="objectBoundingBox"><stop offset="0" stop-color="#f9110d"></stop><stop offset="1" stop-color="#8a0400"></stop></linearGradient><linearGradient id="linear-gradient-2" x1="-16.131" y1="17.36" x2="11.462" y2="-10.613" xlink:href="#linear-gradient"></linearGradient><linearGradient id="linear-gradient-3" x1="-12.398" y1="14.37" x2="13.549" y2="-13.542" xlink:href="#linear-gradient"></linearGradient><linearGradient id="linear-gradient-4" x1="-13.068" y1="15.795" x2="14.524" y2="-15.319" xlink:href="#linear-gradient"></linearGradient><linearGradient id="linear-gradient-5" x1="-0.22" y1="1.215" x2="1.561" y2="-0.657" xlink:href="#linear-gradient"></linearGradient></defs><g id="Group_322" data-name="Group 322" transform="translate(-555.92 -667.843)"><g id="Group_323" data-name="Group 323" transform="translate(555.92 667.843)"><g id="Group_322-2" data-name="Group 322" transform="translate(68.224 20.974)"><path id="Path_8519" data-name="Path 8519" d="M762.337,748.108l-5.972-.118a.559.559,0,0,1-.53-.572v-6.745a.54.54,0,0,1,.548-.558l5.972.258a.559.559,0,0,1,.515.572v6.6A.54.54,0,0,1,762.337,748.108Z" transform="translate(-752.466 -735.207)" fill="url(#linear-gradient)"></path><path id="Path_8520" data-name="Path 8520" d="M779.468,731.815l-3.579-.154a.559.559,0,0,1-.514-.572v-4.129a.529.529,0,0,1,.543-.549l3.578.211a.56.56,0,0,1,.5.571v4.071A.528.528,0,0,1,779.468,731.815Z" transform="translate(-765.009 -726.411)" fill="url(#linear-gradient-2)"></path><path id="Path_8521" data-name="Path 8521" d="M746.969,778.764l3.844.008a.552.552,0,0,1,.534.567v4.218a.556.556,0,0,1-.53.57l-3.844.054a.552.552,0,0,1-.545-.567v-4.28A.555.555,0,0,1,746.969,778.764Z" transform="translate(-746.428 -760.016)" fill="url(#linear-gradient-3)"></path><path id="Path_8522" data-name="Path 8522" d="M775.893,807.6l3.579-.106a.532.532,0,0,1,.529.553v3.579a.555.555,0,0,1-.509.569l-3.579.158a.533.533,0,0,1-.539-.553v-3.631A.555.555,0,0,1,775.893,807.6Z" transform="translate(-765.009 -778.459)" fill="url(#linear-gradient-4)"></path></g><path id="Path_8523" data-name="Path 8523" d="M627.046,717.291l-6.257.168a.569.569,0,0,0-.538.579V722.4a.574.574,0,0,1-.534.583l-4.084.175a.552.552,0,0,1-.566-.566v-4.411a.574.574,0,0,1,.545-.583l4.1-.11a.569.569,0,0,0,.539-.579v-6.876a.559.559,0,0,0-.548-.572l-6.519.024a.567.567,0,0,1-.558-.578v-7.072a.562.562,0,0,1,.563-.574l6.468.129a.554.554,0,0,0,.553-.568v-6.806a.547.547,0,0,1,.559-.562l6.235.268a.54.54,0,0,0,.549-.557V676.987a2.34,2.34,0,0,0-2.036-2.355L558.6,667.857a2.384,2.384,0,0,0-2.684,2.348v76.031a2.383,2.383,0,0,0,2.684,2.347l66.951-6.78a2.34,2.34,0,0,0,2.035-2.354v-21.6A.544.544,0,0,0,627.046,717.291Zm-14.933-17.17a.449.449,0,0,1-.452.458l-11.715-.29a.459.459,0,0,0-.466.465v25.788a.478.478,0,0,1-.444.479l-6.391.376-3.844.226a.461.461,0,0,1-.488-.464V700.47a.48.48,0,0,0-.466-.481l-13.768-.34a.493.493,0,0,1-.482-.49V688.292a.473.473,0,0,1,.506-.472l14.21.839,11.167.659,12.2.72a.468.468,0,0,1,.43.472Z" transform="translate(-555.92 -667.843)" fill="url(#linear-gradient-5)"></path></g><g id="Group_324" data-name="Group 324" transform="translate(652.69 692.457)"><path id="Path_8524" data-name="Path 8524" d="M833.909,750.184v9.034c0,2.119.52,2.788,2.565,2.788a8.972,8.972,0,0,0,1.562-.187c.483-.037.706.223.744.744l.222,2.082c.038.52-.222.706-.706.855a11.366,11.366,0,0,1-3.123.409c-4.312,0-6.1-1.673-6.1-6.171v-9.555h-2.045c-.595,0-.892-.26-.892-.855v-2.082c0-.595.3-.855.892-.855h2.119V741.82c0-.558.26-.781.855-.781h2.974c.595,0,.892.223.892.781v4.573H838c.595,0,.855.26.855.855v2.082c0,.595-.26.855-.855.855Z" transform="translate(-826.14 -739.44)"></path><path id="Path_8525" data-name="Path 8525" d="M882.286,769.393c.558-.26.93,0,1.115.52l.632,1.748c.149.52-.038.818-.558,1.078a14.6,14.6,0,0,1-6.469,1.45c-6.58,0-10.483-3.792-10.483-10.223,0-6.581,3.718-10.261,9.48-10.261,5.8,0,8.96,3.829,8.96,9.331v1.822c0,.632-.26.893-.892.893H871.393c.371,2.936,2.565,4.8,6.023,4.8A10.582,10.582,0,0,0,882.286,769.393Zm-11-6.767H880.5V762.4c0-3.086-1.487-5.056-4.424-5.056C873.178,757.347,871.542,759.057,871.282,762.626Z" transform="translate(-852.061 -747.57)"></path><path id="Path_8526" data-name="Path 8526" d="M930.352,750.184v9.034c0,2.119.52,2.788,2.565,2.788a8.974,8.974,0,0,0,1.562-.187c.484-.037.706.223.744.744l.222,2.082c.038.52-.222.706-.706.855a11.361,11.361,0,0,1-3.123.409c-4.313,0-6.1-1.673-6.1-6.171v-9.555h-2.045c-.595,0-.892-.26-.892-.855v-2.082c0-.595.3-.855.892-.855h2.119V741.82c0-.558.26-.781.855-.781h2.974c.595,0,.892.223.892.781v4.573h4.126c.595,0,.855.26.855.855v2.082c0,.595-.26.855-.855.855Z" transform="translate(-888.045 -739.44)"></path><path id="Path_8527" data-name="Path 8527" d="M969.909,754.683a.776.776,0,0,1,.892.78l.187,2.937a6.562,6.562,0,0,1,5.911-3.866c.52,0,.743.149.743.744v3.457c0,.558-.26.669-.706.669-.372,0-.632-.075-1.19-.075-2.826,0-4.722,2.639-4.722,5.539v8.551c0,.595-.26.855-.855.855h-3.2c-.595,0-.892-.26-.892-.855V755.538c0-.595.3-.855.892-.855Z" transform="translate(-915.965 -748.103)"></path><path id="Path_8528" data-name="Path 8528" d="M1020.235,772.887c0,.595-.3.855-.892.855h-2.751c-.595,0-.818-.3-.856-.706l-.148-2.008c-.818,1.264-2.64,3.049-6.766,3.049-3.829,0-6.357-2.008-6.357-5.688,0-5.465,5.279-6.395,12.974-6.544v-.855c0-2.3-1.264-3.383-4.238-3.383a14.983,14.983,0,0,0-5.576,1.115.748.748,0,0,1-1.078-.52l-.669-2.045a.817.817,0,0,1,.52-1.041,20.353,20.353,0,0,1,7.435-1.413c5.8,0,8.4,2.453,8.4,7.063Zm-4.8-8.142c-4.944.149-8.29.595-8.29,3.346,0,1.524,1.152,2.6,3.272,2.6,3.42,0,5.018-1.933,5.018-4.35Z" transform="translate(-939.321 -747.57)"></path><path id="Path_8529" data-name="Path 8529" d="M1068.945,762.041c-.037.408-.26.706-.855.706h-2.937c-.595,0-.855-.26-.855-.855v-24.5c0-.595.26-.818.855-.818h3.2c.595,0,.855.223.855.818v8.4c1.078-2.007,3.607-3.086,6.208-3.086,5.168,0,8.291,3.383,8.291,10.223,0,6.878-3.123,10.224-8.291,10.224-2.639,0-5.241-1.041-6.357-3.16Zm5.057-2.863c3.085,0,4.684-1.748,4.684-6.246s-1.6-6.245-4.684-6.245-4.8,1.97-4.8,6.245S1070.916,759.179,1074,759.179Z" transform="translate(-979.01 -736.575)"></path><path id="Path_8530" data-name="Path 8530" d="M1134.734,772.906c-1.339,4.313-2.64,5.948-7.138,5.948a15.57,15.57,0,0,1-3.532-.409c-.484-.149-.818-.334-.744-.855l.26-2.119c.075-.52.3-.706.781-.669a14.551,14.551,0,0,0,2.119.223c1.933,0,2.566-1.078,1.971-2.565l-6.543-16.544c-.224-.558,0-.967.632-.967h3.346c.558,0,.818.3,1,.818l3.011,8.7,1.635,5.428h.075l1.376-5.428,2.416-8.7a.969.969,0,0,1,1-.818h3.272a.668.668,0,0,1,.706.967Z" transform="translate(-1015.935 -748.37)"></path><path id="Path_8531" data-name="Path 8531" d="M1186.251,750.184v9.034c0,2.119.521,2.788,2.565,2.788a8.98,8.98,0,0,0,1.562-.187c.483-.037.706.223.743.744l.223,2.082c.038.52-.223.706-.706.855a11.36,11.36,0,0,1-3.123.409c-4.313,0-6.1-1.673-6.1-6.171v-9.555h-2.044c-.595,0-.892-.26-.892-.855v-2.082c0-.595.3-.855.892-.855h2.119V741.82c0-.558.26-.781.855-.781h2.974c.595,0,.892.223.892.781v4.573h4.126c.595,0,.855.26.855.855v2.082c0,.595-.26.855-.855.855Z" transform="translate(-1052.302 -739.44)"></path><path id="Path_8532" data-name="Path 8532" d="M1234.627,769.393c.558-.26.929,0,1.115.52l.633,1.748c.149.52-.038.818-.558,1.078a14.6,14.6,0,0,1-6.469,1.45c-6.58,0-10.484-3.792-10.484-10.223,0-6.581,3.718-10.261,9.48-10.261,5.8,0,8.96,3.829,8.96,9.331v1.822c0,.632-.26.893-.892.893h-12.677c.371,2.936,2.565,4.8,6.022,4.8A10.582,10.582,0,0,0,1234.627,769.393Zm-11-6.767h9.219V762.4c0-3.086-1.487-5.056-4.424-5.056C1225.52,757.347,1223.884,759.057,1223.624,762.626Z" transform="translate(-1078.224 -747.57)"></path></g><g id="Group_325" data-name="Group 325" transform="translate(815.036 705.812)"><path id="Path_8533" data-name="Path 8533" d="M1283.438,797.565a2.4,2.4,0,0,1,.012,3.291,2.2,2.2,0,0,1-1.639.659,2.284,2.284,0,0,1-1.664-.659,2.355,2.355,0,0,1,0-3.291,2.26,2.26,0,0,1,1.664-.67A2.188,2.188,0,0,1,1283.438,797.565Z" transform="translate(-1279.476 -788.649)"></path><path id="Path_8534" data-name="Path 8534" d="M1310.426,774.141V785.07a5.83,5.83,0,0,1-1.739,4.571,6.644,6.644,0,0,1-4.62,1.565,8.766,8.766,0,0,1-6.035-2.285l1.763-2.335a6.6,6.6,0,0,0,4,1.59,3.643,3.643,0,0,0,2.384-.733,2.643,2.643,0,0,0,.894-2.173v-.67a4.83,4.83,0,0,1-3.75,1.465,5.655,5.655,0,0,1-4.222-1.7,6.672,6.672,0,0,1,0-8.817,5.7,5.7,0,0,1,4.222-1.677,4.643,4.643,0,0,1,4.024,1.813v-1.54Zm-4.222,8.221a3.22,3.22,0,0,0,.919-2.459,3,3,0,0,0-.906-2.385,3.219,3.219,0,0,0-2.2-.794,3.177,3.177,0,0,0-2.272.857,3.075,3.075,0,0,0-.907,2.348,3.217,3.217,0,0,0,.919,2.4,3.226,3.226,0,0,0,4.446.037Z" transform="translate(-1291.004 -773.868)"></path><path id="Path_8535" data-name="Path 8535" d="M1350.546,774.365v2.956h-.894a3.462,3.462,0,0,0-2.41.807,3.067,3.067,0,0,0-.894,2.4v6.135h-3.353V774.365h3.08v1.491a4.053,4.053,0,0,1,3.378-1.639A3.638,3.638,0,0,1,1350.546,774.365Z" transform="translate(-1320.248 -774.091)"></path></g></g></svg> 